<?xml version="1.0" encoding="UTF-8" standalone="no"?>
<!-- Created with Inkscape (http://www.inkscape.org/) -->

<svg
   xmlns:dc="http://purl.org/dc/elements/1.1/"
   xmlns:cc="http://creativecommons.org/ns#"
   xmlns:rdf="http://www.w3.org/1999/02/22-rdf-syntax-ns#"
   xmlns:svg="http://www.w3.org/2000/svg"
   xmlns="http://www.w3.org/2000/svg"
   xmlns:sodipodi="http://sodipodi.sourceforge.net/DTD/sodipodi-0.dtd"
   xmlns:inkscape="http://www.inkscape.org/namespaces/inkscape"
   width="300"
   height="300"
   viewBox="0 0 300 300"
   id="svg2"
   version="1.1"
   inkscape:version="0.91 r13725"
   sodipodi:docname="scrawleo.svg">
  <defs
     id="defs4" />
  <sodipodi:namedview
     id="base"
     pagecolor="#000000"
     bordercolor="#666666"
     borderopacity="1.0"
     inkscape:pageopacity="0"
     inkscape:pageshadow="2"
     inkscape:zoom="1.52"
     inkscape:cx="68.829152"
     inkscape:cy="144.83958"
     inkscape:document-units="px"
     inkscape:current-layer="layer1"
     showgrid="false"
     units="px"
     inkscape:window-width="1600"
     inkscape:window-height="846"
     inkscape:window-x="0"
     inkscape:window-y="0"
     inkscape:window-maximized="1" />
  <metadata
     id="metadata7">
    <rdf:RDF>
      <cc:Work
         rdf:about="">
        <dc:format>image/svg+xml</dc:format>
        <dc:type
           rdf:resource="http://purl.org/dc/dcmitype/StillImage" />
        <dc:title></dc:title>
      </cc:Work>
    </rdf:RDF>
  </metadata>
  <g
     inkscape:label="Layer 1"
     inkscape:groupmode="layer"
     id="layer1"
     transform="translate(0,-752.36216)">
    <circle
       style="fill:#f9f9f9"
       id="path3450"
       cx="150"
       cy="902.36218"
       r="150" />
    <g
       id="g3422"
       transform="matrix(0.6106742,0,0,0.6106742,-29.394329,798.4079)"
       style="fill:#e6e6e6">
      <g
         id="g3372"
         style="fill:#e6e6e6">
        <circle
           id="circle3374"
           r="134.862"
           cy="172.02"
           cx="255.74899"
           style="fill:#e6e6e6" />
        <path
           id="path3376"
           d="m 390.615,172.02 c 0,-74.484 -60.381,-134.865 -134.865,-134.865 -74.484,0 -134.863,60.382 -134.863,134.865 0,53.87 31.588,100.356 77.249,121.964 -7.396,10.95 -11.782,24.388 -11.829,38.493 -0.128,38.38 30.883,69.598 69.262,69.726 38.378,0.129 69.598,-30.881 69.726,-69.262 0.048,-14.456 -4.42,-27.811 -11.936,-38.954 45.664,-21.606 77.256,-68.094 77.256,-121.967 z"
           style="fill:#e6e6e6"
           inkscape:connector-curvature="0" />
      </g>
      <g
         id="g3380"
         style="fill:#e6e6e6">
        <path
           id="path3382"
           d="m 226.115,370.977 c 0.749,0.096 1.505,0.162 2.28,0.162 9.819,0 17.78,-7.96 17.78,-17.78 0,-9.819 -7.96,-17.78 -17.78,-17.78 -5.256,0 -9.965,2.294 -13.219,5.92 -0.373,-2.954 -0.566,-5.965 -0.555,-9.024 0.035,-10.752 2.555,-20.901 6.955,-29.966 10.915,2.851 22.367,4.373 34.176,4.373 11.735,0 23.118,-1.502 33.972,-4.318 -2.521,0.141 -5.059,0.218 -7.614,0.218 -74.484,0 -134.865,-60.381 -134.865,-134.865 0,-62.749 42.854,-115.485 100.891,-130.545 -70.941,3.95 -127.25,62.721 -127.25,134.648 0,57.745 33.921,101.067 77.199,122.049 -7.371,10.991 -11.729,24.182 -11.778,38.409 -0.125,38.382 30.886,69.597 69.266,69.726 4.905,0.016 9.689,-0.506 14.311,-1.46 -18.239,-3.795 -33.837,-14.746 -43.769,-29.767 z"
           style="fill:#e6e6e6"
           inkscape:connector-curvature="0" />
        <circle
           id="circle3384"
           r="49.355"
           cy="139.312"
           cx="223.42799"
           style="fill:#e6e6e6" />
      </g>
      <g
         id="g3386"
         style="fill:#e6e6e6" />
      <g
         id="g3388"
         style="fill:#e6e6e6" />
      <g
         id="g3390"
         style="fill:#e6e6e6" />
      <g
         id="g3392"
         style="fill:#e6e6e6" />
      <g
         id="g3394"
         style="fill:#e6e6e6" />
      <g
         id="g3396"
         style="fill:#e6e6e6" />
      <g
         id="g3398"
         style="fill:#e6e6e6" />
      <g
         id="g3400"
         style="fill:#e6e6e6" />
      <g
         id="g3402"
         style="fill:#e6e6e6" />
      <g
         id="g3404"
         style="fill:#e6e6e6" />
      <g
         id="g3406"
         style="fill:#e6e6e6" />
      <g
         id="g3408"
         style="fill:#e6e6e6" />
      <g
         id="g3410"
         style="fill:#e6e6e6" />
      <g
         id="g3412"
         style="fill:#e6e6e6" />
      <g
         id="g3414"
         style="fill:#e6e6e6" />
    </g>
    <path
       inkscape:connector-curvature="0"
       style="fill:#e6e6e6"
       d="m 2.10134,923.03159 a 150,150 0 0 0 2.58398,13.44336 L 60.62868,965.6019 11.845477,955.43003 c -0.4937,-0.10304 -0.99077,-0.13238 -1.478515,-0.0977 a 150,150 0 0 0 5.207031,11.83594 l 67.833984,14.14648 -47.292968,17.31055 a 150,150 0 0 0 7.736328,8.5938 l 44.441406,-16.26567 c 2.784064,-1.01922 4.213917,-4.09997 3.195313,-6.88282 -0.164272,-0.44945 -0.388412,-0.85869 -0.650391,-1.23242 2.718721,0.30717 5.272648,-1.50478 5.841797,-4.23633 0.604567,-2.9007 -1.25689,-5.74247 -4.158203,-6.34765 l -12.134766,-2.53125 c 1.295851,-2.61063 0.272368,-5.78859 -2.324219,-7.14063 L 2.10134,923.03159 Z"
       id="path3450-1" />
    <path
       inkscape:connector-curvature="0"
       style="fill:#e6e6e6"
       d="m 257.98911,804.15207 c -0.18098,-0.006 -0.36235,-10e-4 -0.54688,0.0117 -2.95688,0.19359 -5.19676,2.74954 -5.00196,5.70704 l 7.24611,110.05469 -68.98633,35.9199 c 11.93563,-14.2904 19.12695,-32.6792 19.12695,-52.7539 0,-45.4854 -36.87392,-82.35937 -82.35937,-82.35937 -13.27789,0 -25.81823,3.14696 -36.925788,8.72852 6.606268,-1.70745 13.533828,-2.61719 20.673828,-2.61719 45.48546,0 82.35742,36.87254 82.35742,82.35744 0,25.2166 -11.33492,47.7805 -29.18554,62.8867 0,0 -3.05711,2.4914 -6.09766,4.6855 -3.22375,2.2492 -6.6108,4.281 -10.14844,6.0586 0.0263,-0.01 0.0538,-0.015 0.0801,-0.022 2.73155,5.595 4.2101,11.8291 4.1875,18.5508 -0.0678,20.3874 -14.50366,37.363 -33.68554,41.3867 2.78711,0.5857 5.67287,0.901 8.63281,0.9102 5.61209,0.018 10.97043,-1.0627 15.88086,-3.0254 0.0287,0.053 0.0534,0.1069 0.084,0.1582 1.60546,2.7016 2.45313,5.8011 2.45313,8.9668 0,0.6682 -0.043,1.3313 -0.11719,1.9863 a 150,150 0 0 0 5.02535,0.252 150,150 0 0 0 5.74219,-0.2031 c 0.0483,-0.6744 0.0801,-1.353 0.0801,-2.0352 0,-5.0478 -1.34729,-9.9985 -3.89258,-14.3301 5.04722,-3.7116 9.24243,-8.5111 12.24023,-14.0566 l 12.5586,28.166 a 150,150 0 0 0 10.48828,-2.3554 l -18.23049,-41.2188 c 0.16793,-1.5114 0.26269,-3.0462 0.26758,-4.6016 0.011,-3.2347 -0.3312,-6.3547 -0.98829,-9.3476 l 67.34766,24.6504 3.25586,5.959 a 150,150 0 0 0 8.52539,-6.7754 l -3.33399,-6.1016 c -0.62411,-1.1426 -1.64267,-2.0178 -2.86524,-2.4648 l -70.29686,-25.7305 70.45116,-14.6914 23.84766,31.1504 a 150,150 0 0 0 6.73632,-8.8614 L 248.50277,957.654 c -1.25432,-1.6384 -3.33412,-2.4122 -5.35547,-1.9902 l -48.15038,10.041 72.75196,-37.8789 c 1.88698,-0.9832 3.01483,-2.9894 2.875,-5.1133 L 263.1473,809.16377 c -0.18263,-2.77208 -2.44343,-4.92548 -5.1582,-5.01172 z"
       id="path3450-6" />
    <text
       xml:space="preserve"
       style="font-style:normal;font-weight:normal;font-size:40px;line-height:125%;font-family:sans-serif;letter-spacing:0px;word-spacing:0px;fill:#000000;fill-opacity:1;stroke:none;stroke-width:1px;stroke-linecap:butt;stroke-linejoin:miter;stroke-opacity:1"
       x="149.70703"
       y="924.73035"
       id="text3336"
       sodipodi:linespacing="125%"><tspan
         sodipodi:role="line"
         id="tspan3338"
         x="149.70703"
         y="924.73035"
         style="font-style:normal;font-variant:normal;font-weight:normal;font-stretch:normal;font-size:60px;font-family:sans-serif;-inkscape-font-specification:sans-serif;text-align:center;letter-spacing:0px;text-anchor:middle"><tspan
           style="font-style:normal;font-variant:normal;font-weight:normal;font-stretch:normal;font-family:sans-serif;-inkscape-font-specification:sans-serif;text-align:center;text-anchor:middle;fill:#ff6600;letter-spacing:0px"
           id="tspan3342">S</tspan><tspan
           style="font-style:normal;font-variant:normal;font-weight:normal;font-stretch:normal;font-family:sans-serif;-inkscape-font-specification:sans-serif;text-align:center;text-anchor:middle;fill:#1a1a1a;letter-spacing:0px"
           id="tspan3340">crawl</tspan><tspan
           style="font-style:normal;font-variant:normal;font-weight:normal;font-stretch:normal;font-family:sans-serif;-inkscape-font-specification:sans-serif;text-align:center;text-anchor:middle;fill:#ff6600;letter-spacing:0px"
           id="tspan3344">EO</tspan></tspan></text>
  </g>
</svg>
